<?xml version="1.0" standalone="no"?>
<!DOCTYPE svg PUBLIC "-//W3C//DTD SVG 20010904//EN"
 "http://www.w3.org/TR/2001/REC-SVG-20010904/DTD/svg10.dtd">
<svg version="1.0" xmlns="http://www.w3.org/2000/svg"
 width="345.000000pt" height="387.000000pt" viewBox="0 0 345.000000 387.000000"
 preserveAspectRatio="xMidYMid meet">

<g transform="translate(0.000000,387.000000) scale(0.100000,-0.100000)"
fill="#000000" stroke="none">
<path d="M488 3599 c-123 -148 -224 -273 -226 -278 -1 -4 13 -27 31 -52 56
-73 126 -201 154 -280 35 -99 43 -249 18 -335 -46 -162 -185 -310 -385 -409
-41 -21 -76 -39 -78 -40 -8 -7 62 -313 98 -435 106 -351 281 -692 490 -955 93
-116 280 -305 395 -398 199 -161 475 -322 673 -391 l72 -26 108 42 c407 160
797 448 1072 793 296 372 487 842 531 1305 20 216 1 496 -52 735 -69 311 -214
666 -372 909 l-57 86 -57 -26 c-341 -152 -679 -224 -1053 -224 -365 0 -740 75
-1051 210 l-88 38 -223 -269z m318 177 c271 -114 625 -190 949 -202 346 -14
688 43 1027 170 48 18 84 28 81 23 -4 -6 -531 -634 -1171 -1396 -641 -762
-1166 -1387 -1167 -1389 -5 -6 -120 186 -176 293 -73 139 -159 353 -205 509
-43 149 -96 390 -85 394 4 1 42 22 85 47 418 238 498 599 224 1017 -50 77 -50
77 -32 101 35 43 387 467 388 467 1 0 38 -15 82 -34z m2204 -72 c240 -407 373
-850 387 -1289 9 -298 -23 -515 -118 -802 -227 -681 -763 -1247 -1438 -1518
l-113 -45 -92 36 c-204 81 -439 220 -624 369 -143 116 -332 314 -434 455 l-25
35 1196 1422 c658 782 1199 1422 1203 1423 4 0 30 -39 58 -86z"/>
<path d="M1512 3308 c5 -11 -7 -26 -34 -48 -56 -45 -78 -86 -78 -143 0 -135
134 -226 247 -168 48 24 98 81 114 130 11 34 11 35 -44 83 -39 34 -54 54 -51
66 3 9 -13 -3 -35 -28 -38 -41 -49 -67 -17 -41 11 9 25 2 70 -34 l56 -46 -20
-38 c-18 -36 -68 -71 -102 -71 -35 0 -92 24 -124 52 -46 40 -64 77 -64 129 0
34 6 47 35 76 33 33 39 35 85 31 28 -3 50 -4 50 -3 0 1 -21 17 -47 35 -28 21
-44 28 -41 18z"/>
<path d="M1270 3006 c0 -8 -13 -22 -29 -32 -64 -38 -79 -108 -32 -155 36 -35
52 -36 143 -4 108 38 138 31 138 -30 0 -61 -68 -95 -140 -71 -21 7 -18 2 15
-27 44 -40 55 -44 55 -23 0 8 16 24 35 36 66 41 85 120 40 165 -32 33 -76 32
-170 -1 -59 -21 -77 -24 -94 -15 -23 13 -28 50 -11 81 14 27 71 43 104 30 42
-16 42 -13 0 25 -43 38 -54 42 -54 21z"/>
<path d="M1231 2631 c-33 -39 -38 -51 -28 -60 10 -8 19 -4 38 17 59 65 61 68
45 81 -11 9 -22 2 -55 -38z"/>
<path d="M943 2620 c-38 -45 -39 -48 -16 -46 20 1 36 -70 31 -142 l-3 -45 -52
47 c-47 43 -52 50 -41 69 10 20 10 21 -6 8 -9 -8 -30 -31 -46 -51 l-29 -37 24
5 c19 3 47 -15 135 -88 60 -50 110 -94 110 -97 0 -2 -5 -14 -11 -26 -5 -12 12
3 40 33 51 57 57 70 23 49 -21 -13 -20 -14 -115 63 -21 16 -21 16 13 22 19 3
64 7 100 8 57 3 65 1 64 -14 -1 -10 1 -18 5 -17 7 0 105 119 98 119 -2 0 -17
-6 -33 -14 -30 -15 -241 -42 -251 -32 -3 3 -6 55 -7 115 0 61 -1 111 -1 111 0
0 -15 -18 -32 -40z"/>
<path d="M722 2351 c-42 -50 -55 -74 -27 -51 13 11 21 9 48 -10 80 -58 208
-173 204 -184 -2 -6 -17 -10 -34 -8 -35 4 -50 -12 -33 -33 29 -35 80 4 80 61
0 40 -19 62 -149 174 -59 51 -63 57 -52 78 18 34 8 27 -37 -27z"/>
<path d="M560 2136 c-19 -13 -55 -48 -79 -77 -25 -30 -52 -63 -60 -73 -15 -18
-15 -18 6 -7 20 10 33 2 137 -85 64 -52 116 -98 116 -100 0 -3 -5 -15 -11 -27
-14 -30 74 67 111 122 16 24 33 60 36 79 10 51 -22 119 -74 159 -56 43 -128
46 -182 9z m113 -32 c115 -58 142 -172 58 -248 -20 -18 -21 -18 -91 39 -38 31
-89 74 -112 95 l-43 38 21 29 c23 32 78 63 112 63 13 0 37 -7 55 -16z"/>
<path d="M2656 2955 c-48 -55 -51 -64 -16 -45 16 8 35 -4 115 -71 84 -70 96
-84 91 -105 -4 -13 -5 -24 -2 -24 9 0 146 169 146 180 0 15 -41 73 -47 66 -2
-2 1 -14 7 -26 15 -28 0 -67 -40 -105 l-29 -28 -90 74 c-96 80 -108 94 -90
116 7 7 10 16 7 18 -3 3 -26 -19 -52 -50z"/>
<path d="M3022 2978 c2 -15 10 -23 23 -23 30 0 27 39 -3 43 -20 3 -23 0 -20
-20z"/>
<path d="M2538 2668 c-36 -39 -37 -91 0 -96 23 -3 32 21 12 33 -16 10 -12 42
6 49 8 3 24 2 34 -4 17 -9 17 -13 4 -57 -15 -50 -12 -74 12 -98 32 -32 84 -7
84 40 0 17 6 25 23 27 17 2 22 10 24 38 1 19 0 29 -3 23 -9 -21 -22 -15 -81
32 -30 25 -62 45 -70 45 -8 0 -28 -14 -45 -32z m121 -72 c28 -30 21 -69 -11
-64 -28 4 -42 29 -34 61 8 33 16 34 45 3z"/>
<path d="M2770 2685 c-16 -19 -5 -47 17 -43 22 4 29 43 9 51 -8 3 -20 -1 -26
-8z"/>
<path d="M2342 2430 c-12 -12 -22 -32 -22 -47 0 -21 -3 -23 -14 -14 -17 14
-21 8 -31 -39 -7 -30 -6 -33 7 -22 13 10 25 4 72 -34 61 -50 66 -62 38 -88
-18 -15 -22 -14 -82 34 -34 27 -69 50 -77 50 -28 0 -51 -20 -58 -51 -5 -20
-12 -29 -20 -25 -8 3 -18 -7 -24 -26 -15 -42 -14 -53 4 -38 12 10 24 5 69 -34
30 -26 56 -56 58 -68 3 -20 7 -18 37 21 28 36 31 42 14 37 -14 -5 -34 5 -71
36 -54 43 -63 66 -36 92 18 19 30 14 92 -39 33 -29 41 -42 37 -59 -6 -20 17 2
83 79 10 11 28 33 42 48 l25 29 -25 -6 c-20 -5 -35 3 -74 37 -43 38 -48 47
-42 70 9 39 39 34 97 -15 38 -32 48 -46 44 -62 -5 -16 3 -11 29 16 36 38 51
73 21 48 -13 -11 -23 -6 -63 27 -48 40 -84 63 -99 63 -5 0 -19 -9 -31 -20z"/>
<path d="M2050 2077 l-24 -30 22 5 c28 8 122 -63 122 -92 0 -16 -24 -50 -35
-50 -2 0 -31 23 -64 50 -33 28 -65 50 -70 50 -6 0 -18 -12 -28 -27 -10 -16
-26 -34 -35 -41 -10 -7 -18 -22 -18 -32 0 -12 -5 -17 -14 -14 -9 3 -18 -6 -25
-27 -15 -43 -14 -54 4 -39 15 13 18 11 88 -45 24 -20 37 -39 37 -55 1 -24 2
-23 35 15 41 47 43 54 12 48 -16 -3 -36 7 -70 37 -52 46 -57 59 -26 78 13 9
18 19 14 32 -11 36 13 29 76 -20 35 -27 72 -50 82 -50 25 0 57 36 57 66 0 22
2 24 15 14 12 -10 16 -8 25 15 15 40 13 60 -4 46 -11 -9 -26 -2 -73 37 -78 64
-75 64 -103 29z"/>
<path d="M2721 1940 c-34 -43 -34 -43 -8 -36 24 6 29 0 76 -86 27 -51 49 -94
47 -95 -1 -1 -46 11 -101 27 -54 17 -100 30 -103 30 -2 0 -1 12 3 27 5 23 4
25 -10 13 -9 -7 -30 -31 -47 -52 l-30 -39 24 6 c16 4 77 -9 164 -34 77 -23
145 -41 152 -41 8 0 -14 51 -54 127 -38 70 -70 143 -73 161 l-6 34 -34 -42z"/>
<path d="M2992 1848 c2 -15 10 -23 23 -23 30 0 27 39 -3 43 -20 3 -23 0 -20
-20z"/>
<path d="M1651 1759 c-15 -43 -14 -54 3 -40 14 12 40 -6 170 -116 45 -37 62
-40 92 -15 83 67 37 202 -69 202 -42 0 -65 -17 -75 -54 l-8 -29 -34 29 c-70
59 -67 58 -79 23z m234 -29 c18 -11 38 -34 45 -50 11 -26 10 -33 -5 -50 -25
-28 -36 -25 -89 18 -51 41 -55 53 -26 82 25 25 35 25 75 0z"/>
<path d="M1646 1594 c-9 -8 -16 -26 -16 -39 0 -17 -4 -22 -18 -18 -14 3 -21
-4 -29 -31 -11 -34 -10 -36 10 -31 27 7 131 -80 123 -101 -10 -26 11 -14 38
20 31 41 32 46 8 39 -11 -2 -37 11 -65 34 -40 32 -47 43 -45 68 5 46 34 43 95
-10 37 -33 50 -51 46 -63 -8 -21 44 24 59 51 8 16 7 18 -10 13 -14 -5 -35 6
-75 39 -59 48 -94 56 -121 29z"/>
<path d="M2491 1514 c-56 -47 -35 -131 41 -170 39 -20 92 -11 113 19 19 28 19
78 0 103 -15 18 -16 17 -10 -13 11 -57 -47 -91 -102 -60 l-23 13 40 48 c46 55
47 61 21 76 -30 16 -47 12 -80 -16z m46 -22 c9 -5 5 -17 -13 -40 -14 -18 -30
-30 -35 -27 -16 10 -10 53 9 64 21 13 24 13 39 3z"/>
<path d="M2704 1516 c-8 -21 13 -46 32 -39 20 8 13 47 -9 51 -9 2 -20 -4 -23
-12z"/>
<path d="M1434 1475 c-4 -9 -2 -21 4 -27 15 -15 44 -1 40 19 -4 23 -36 29 -44
8z"/>
<path d="M1384 1415 c-4 -9 -2 -21 4 -27 15 -15 44 -1 40 19 -4 23 -36 29 -44
8z"/>
<path d="M1487 1405 c-30 -31 -37 -62 -23 -106 12 -38 66 -79 103 -79 62 0
113 60 99 116 -4 15 -22 42 -41 61 -43 43 -99 46 -138 8z m86 -26 c59 -30 84
-78 55 -107 -18 -18 -47 -14 -94 13 -45 26 -60 52 -49 85 7 23 52 27 88 9z"/>
<path d="M2182 1278 c-11 -44 -7 -63 8 -38 12 19 26 11 127 -74 64 -53 73 -64
68 -86 -5 -21 0 -18 34 20 22 25 40 49 41 54 0 6 -5 5 -12 -2 -7 -7 -17 -12
-23 -12 -6 0 -59 41 -119 90 -59 50 -109 90 -111 90 -1 0 -7 -19 -13 -42z"/>
<path d="M1210 1235 c-15 -39 -13 -60 3 -46 11 8 35 -7 110 -69 57 -47 97 -88
99 -101 3 -19 7 -17 37 21 27 34 30 41 14 36 -23 -7 -123 66 -123 91 0 19 19
53 29 53 5 0 35 -21 65 -46 46 -37 56 -50 51 -67 -5 -17 2 -14 29 15 35 37 52
74 22 49 -10 -9 -27 0 -77 39 -35 27 -74 50 -86 50 -26 0 -53 -35 -53 -68 0
-22 -4 -20 -55 23 l-55 47 -10 -27z"/>
<path d="M2065 1150 c-39 -87 4 -203 91 -242 54 -24 95 -17 124 19 67 86 -64
219 -138 140 -12 -13 -22 -29 -22 -35 0 -25 -19 -10 -30 24 -12 35 -10 83 5
117 4 9 3 17 -2 17 -6 0 -18 -18 -28 -40z m163 -120 c18 -11 38 -32 44 -46 11
-23 10 -29 -11 -45 -21 -17 -25 -17 -59 -3 -69 29 -88 60 -55 96 21 23 40 23
81 -2z"/>
<path d="M1213 1075 c-12 -8 -27 -31 -33 -50 -30 -92 94 -184 165 -122 23 19
29 32 28 62 -1 21 -8 45 -17 54 -15 14 -16 13 -10 -17 8 -38 -16 -72 -50 -72
-33 0 -85 37 -92 65 -10 42 1 57 40 50 36 -7 50 3 40 29 -8 20 -43 21 -71 1z"/>
<path d="M1013 986 c4 -9 -5 -22 -21 -32 -40 -26 -51 -45 -52 -86 0 -46 28
-78 68 -78 15 0 56 10 91 21 50 17 68 19 87 10 31 -14 31 -45 -2 -78 -22 -22
-32 -25 -72 -20 l-47 5 40 -36 c26 -24 40 -32 43 -22 3 7 24 32 48 55 51 48
57 85 23 129 -26 33 -72 35 -147 6 -66 -25 -89 -25 -102 1 -25 45 43 94 97 70
41 -19 40 -4 -3 34 -42 36 -60 44 -51 21z"/>
<path d="M1890 950 c-14 -14 -20 -33 -20 -64 0 -36 6 -50 31 -75 41 -42 98
-43 128 -5 12 15 21 34 21 43 1 26 28 -29 35 -71 5 -25 2 -48 -8 -68 -19 -36
-4 -40 19 -5 12 19 15 42 12 94 -3 56 -9 75 -31 105 -16 20 -41 43 -57 51 -42
22 -106 19 -130 -5z m88 -24 c48 -25 63 -48 49 -76 -16 -33 -49 -36 -92 -10
-37 23 -50 49 -40 80 8 24 43 26 83 6z"/>
<path d="M1746 772 c-2 -4 -7 -25 -11 -47 -7 -37 -6 -38 7 -21 18 22 14 24
127 -69 58 -48 71 -64 68 -82 -6 -33 5 -28 41 16 36 45 40 56 14 42 -15 -8
-38 7 -125 80 -58 49 -108 89 -111 89 -3 0 -7 -3 -10 -8z"/>
</g>
</svg>
